# xmcd CD database file
#
# Track frame offsets:
#	150
#	4477
#	20434
#	42693
#	57721
#	70217
#	90311
#	104256
#	118882
#	137261
#	153596
#	172933
#	185948
#	197988
#	216846
#	231711
#	246349
#	263423
#	275727
#	290794
#	304461
#	321054
#	333360
#
# Disc length: 4716 seconds
#
# Revision: 0
# Processed by: cddbd v1.5.2PL0 Copyright (c) Steve Scherf et al.
# Submitted via: CDex 1.51
#
DISCID=6f126a17
DTITLE=Various Artist - EL DISCO DE REGGAETON 02
DYEAR=2005
DGENRE=REGGAETON
TTITLE0=EL DISCO DE REGGAETON 02 - INTRO
TTITLE1=DADDY YANKEE - LO QUE PASO PASO
TTITLE2=BIG BOY - MIS OJOS LLORAN POR TI
TTITLE3=PABLO PORTILLO FEAT DON OMAR - SI LA VES
TTITLE4=JMP - TU GATITA
TTITLE5=PABLO PORTILLO FEAT. DON OMAR - ELLO Y YO
TTITLE6=LATINO WAY - YO SOY TU MAESTRO
TTITLE7=JIMMY BAD BOY - LUNA Y ESTRELLA
TTITLE8=DON OMAR - AUNQUE TE FUISTE
TTITLE9=HECTOR EL BAMBINO - TU QUIERES DURO
TTITLE10=RAKIM and KEN Y - ME ESTOY MURIENDO
TTITLE11=IVY QUEEN - QUIERO SABER
TTITLE12=ISAAK FEAT BIMBO - NO ME VAS A OLVIDAR
TTITLE13=ANGEL and KHRIZ - VEN BAILALO
TTITLE14=JOHNNY PREZ - VAMPIRESA
TTITLE15=H.O.M. - TOCALA
TTITLE16=MAGNATE and VALENTINO - YA LO SE
TTITLE17=NICKY JAM - LOCO
TTITLE18=RAKIM and KEN-Y - TU NO ESTAS
TTITLE19=FLOW STAR - CANDELA
TTITLE20=HECTOR EL BAMBINO FEAT DAVID CIVERA - NOCHE DE TRAVESURA
TTITLE21=EMBLEMA - LA CHULA CHULA VEN
TTITLE22=EL DISCO DE REGGAETON 02 - ACAPELLA and BEATS
EXTD=YEAR: 2005
EXTT0=
EXTT1=
EXTT2=
EXTT3=
EXTT4=
EXTT5=
EXTT6=
EXTT7=
EXTT8=
EXTT9=
EXTT10=
EXTT11=
EXTT12=
EXTT13=
EXTT14=
EXTT15=
EXTT16=
EXTT17=
EXTT18=
EXTT19=
EXTT20=
EXTT21=
EXTT22=
PLAYORDER=
